<?xml version="1.0" encoding="UTF-8"?>
<svg id="Livello_1" data-name="Livello 1" xmlns="http://www.w3.org/2000/svg" viewBox="0 0 984.47 901.65">
  <defs>
    <style>
      .cls-1 {
        font-family: Nexa-ExtraLight, Nexa;
        font-size: 101.29px;
        font-weight: 200;
        letter-spacing: -.05em;
      }

      .cls-1, .cls-2 {
        isolation: isolate;
      }

      .cls-1, .cls-3 {
        fill: #f5f5f5;
      }
    </style>
  </defs>
  <g>
    <path class="cls-3" d="M764.5,626.39l-29.68-60.95.14-.05-6.42-12.85-1.57-3.22h-.04l-78.35-156.77h-154.35l-38.94,74.17h155.84l42.62,82.6h-320.46l160.67-321.42,62.5,125.57h72.59l-98.95-197.87h0s-34.31-68.6-34.31-68.6c-.11-.22-.24-.42-.38-.61-.05-.07-.11-.13-.16-.19-.1-.12-.2-.23-.31-.33-.07-.06-.14-.12-.21-.18-.11-.09-.23-.17-.35-.25-.08-.05-.15-.1-.23-.14-.04-.02-.07-.05-.11-.06-.07-.04-.15-.05-.23-.08-.13-.05-.26-.11-.39-.15-.12-.04-.24-.06-.36-.09-.12-.02-.25-.05-.37-.06-.13-.01-.25-.01-.38-.01-.13,0-.25,0-.38.01-.13.01-.25.04-.37.06-.12.02-.24.05-.36.09-.13.04-.26.09-.39.15-.07.03-.15.05-.23.08-.04.02-.07.04-.11.06-.08.04-.16.09-.23.14-.12.08-.24.16-.35.25-.07.06-.14.12-.21.18-.11.1-.22.21-.31.33-.05.06-.11.12-.16.19-.14.19-.27.39-.38.61l-32.54,65.16v.02s-198.2,397.14-198.2,397.14h-.05l-3.2,6.53-16.01,32.07h.27l-18.88,38.47h544.3Z"/>
    <polygon class="cls-3" points="189.69 687.4 267.65 687.4 286.9 649.1 208.84 649.1 189.69 687.4"/>
    <polygon class="cls-3" points="775.84 649.1 700.43 649.1 719.59 687.4 794.78 687.4 775.84 649.1"/>
  </g>
  <g class="cls-2">
    <g class="cls-2">
      <path class="cls-3" d="M147.65,775.95v26.44c-3.65,3.65-7.73,6.42-12.26,8.31-4.52,1.89-9.35,2.84-14.48,2.84-7.09,0-13.39-1.54-18.89-4.61-5.5-3.07-9.79-7.38-12.86-12.92-3.07-5.54-4.61-11.88-4.61-19.04s1.54-13.5,4.61-19.04c3.07-5.54,7.38-9.84,12.91-12.91,5.54-3.07,11.88-4.61,19.04-4.61,9.72,0,18.16,3.51,25.32,10.53l-2.94,3.14c-3.04-3.04-6.47-5.37-10.28-6.99-3.82-1.62-7.85-2.43-12.1-2.43-6.28,0-11.85,1.35-16.71,4.05-4.86,2.7-8.64,6.5-11.34,11.39-2.7,4.9-4.05,10.52-4.05,16.87s1.35,11.87,4.05,16.76c2.7,4.9,6.47,8.71,11.29,11.45,4.83,2.73,10.35,4.1,16.56,4.1,4.25,0,8.36-.78,12.31-2.33,3.95-1.55,7.31-3.71,10.08-6.48v-20.26h-25.53v-4.25h29.88Z"/>
      <path class="cls-3" d="M208.01,762.37v50.04h-4.05l-.1-11.14c-1.89,3.71-4.74,6.63-8.56,8.76-3.82,2.13-8.12,3.19-12.91,3.19s-9.18-1.1-12.96-3.29c-3.78-2.19-6.74-5.25-8.86-9.17-2.13-3.92-3.19-8.37-3.19-13.37s1.06-9.45,3.19-13.37c2.13-3.92,5.08-6.97,8.86-9.17,3.78-2.19,8.1-3.29,12.96-3.29s9.1,1.08,12.91,3.24c3.81,2.16,6.67,5.1,8.56,8.81l.1-11.24h4.05ZM193.58,806.54c3.21-1.82,5.71-4.39,7.5-7.7,1.79-3.31,2.68-7.12,2.68-11.45s-.9-8.14-2.68-11.45c-1.79-3.31-4.29-5.87-7.5-7.7-3.21-1.82-6.84-2.74-10.89-2.74s-7.77.91-10.94,2.74c-3.17,1.82-5.66,4.39-7.44,7.7-1.79,3.31-2.68,7.13-2.68,11.45s.89,8.14,2.68,11.45c1.79,3.31,4.27,5.88,7.44,7.7,3.17,1.82,6.82,2.74,10.94,2.74s7.68-.91,10.89-2.74Z"/>
      <path class="cls-3" d="M261.24,764.85c3.81,2.2,6.79,5.25,8.91,9.17,2.13,3.92,3.19,8.37,3.19,13.37s-1.06,9.46-3.19,13.37c-2.13,3.92-5.1,6.97-8.91,9.17-3.82,2.2-8.15,3.29-13.02,3.29s-9.2-1.08-13.02-3.24c-3.82-2.16-6.63-5.06-8.46-8.71v11.14h-4.05v-70.9h4.25v31.81c1.89-3.65,4.71-6.52,8.46-8.61,3.75-2.09,8.02-3.14,12.81-3.14s9.2,1.1,13.02,3.29ZM258.91,806.54c3.21-1.82,5.71-4.39,7.5-7.7,1.79-3.31,2.68-7.12,2.68-11.45s-.9-8.14-2.68-11.45c-1.79-3.31-4.29-5.87-7.5-7.7-3.21-1.82-6.84-2.74-10.89-2.74s-7.77.91-10.94,2.74c-3.17,1.82-5.66,4.39-7.44,7.7-1.79,3.31-2.68,7.13-2.68,11.45s.89,8.14,2.68,11.45c1.79,3.31,4.27,5.88,7.44,7.7,3.17,1.82,6.82,2.74,10.94,2.74s7.68-.91,10.89-2.74Z"/>
      <path class="cls-3" d="M316.19,764.6l-1.92,3.65c-2.5-1.48-5.3-2.23-8.41-2.23s-5.96.91-8.56,2.73c-2.6,1.82-4.64,4.32-6.13,7.5-1.49,3.17-2.23,6.65-2.23,10.43v25.73h-4.25v-50.04h4.05v11.14c1.76-3.65,4.14-6.5,7.14-8.56,3-2.06,6.36-3.09,10.08-3.09,3.98,0,7.39.91,10.23,2.74Z"/>
      <path class="cls-3" d="M322.42,749.46c-.71-.71-1.06-1.6-1.06-2.68s.35-1.99,1.06-2.74c.71-.74,1.64-1.11,2.79-1.11,1.08,0,1.99.37,2.73,1.11.74.74,1.11,1.66,1.11,2.74s-.37,1.97-1.11,2.68c-.74.71-1.66,1.06-2.73,1.06-1.15,0-2.08-.35-2.79-1.06ZM323.07,762.37h4.25v50.04h-4.25v-50.04Z"/>
      <path class="cls-3" d="M377.01,764.55c3.81,2.06,6.75,4.95,8.81,8.66,2.06,3.71,3.09,8,3.09,12.86,0,1.28-.03,2.26-.1,2.94h-45.88c.47,6.28,2.6,11.24,6.38,14.89,3.78,3.65,8.68,5.47,14.69,5.47,3.71,0,7.26-.74,10.64-2.23,3.38-1.49,5.98-3.44,7.8-5.88l3.04,2.53c-2.36,2.97-5.44,5.32-9.22,7.04-3.78,1.72-7.87,2.58-12.26,2.58-4.86,0-9.22-1.11-13.07-3.34-3.85-2.23-6.85-5.32-9.02-9.27-2.16-3.95-3.24-8.42-3.24-13.42s1.06-9.45,3.19-13.37c2.13-3.92,5.1-6.99,8.91-9.22,3.81-2.23,8.15-3.34,13.02-3.34s9.4,1.03,13.22,3.09ZM349.31,770.83c-3.78,3.61-5.91,8.36-6.38,14.23h41.83c0-3.85-.9-7.26-2.68-10.23-1.79-2.97-4.25-5.28-7.39-6.94-3.14-1.65-6.77-2.48-10.89-2.48-5.88,0-10.7,1.81-14.48,5.42Z"/>
      <path class="cls-3" d="M399.44,741.51h4.25v70.9h-4.25v-70.9Z"/>
      <path class="cls-3" d="M453.38,764.55c3.81,2.06,6.75,4.95,8.81,8.66,2.06,3.71,3.09,8,3.09,12.86,0,1.28-.03,2.26-.1,2.94h-45.88c.47,6.28,2.6,11.24,6.38,14.89,3.78,3.65,8.68,5.47,14.69,5.47,3.71,0,7.26-.74,10.64-2.23,3.38-1.49,5.98-3.44,7.8-5.88l3.04,2.53c-2.36,2.97-5.44,5.32-9.22,7.04-3.78,1.72-7.87,2.58-12.26,2.58-4.86,0-9.22-1.11-13.07-3.34-3.85-2.23-6.85-5.32-9.02-9.27-2.16-3.95-3.24-8.42-3.24-13.42s1.06-9.45,3.19-13.37c2.13-3.92,5.1-6.99,8.91-9.22,3.81-2.23,8.15-3.34,13.02-3.34s9.4,1.03,13.22,3.09ZM425.68,770.83c-3.78,3.61-5.91,8.36-6.38,14.23h41.83c0-3.85-.9-7.26-2.68-10.23-1.79-2.97-4.25-5.28-7.39-6.94-3.14-1.65-6.77-2.48-10.89-2.48-5.88,0-10.7,1.81-14.48,5.42Z"/>
    </g>
    <text class="cls-1" transform="translate(467.42 812.41)"><tspan x="0" y="0"> </tspan></text>
    <g class="cls-2">
      <path class="cls-3" d="M556.25,812.41l-8-17.83h-43.15l-8,17.83h-4.86l31.81-70.9h5.27l31.8,70.9h-4.86ZM526.67,746.27l-19.75,43.96h39.5l-19.75-43.96Z"/>
      <path class="cls-3" d="M570.33,741.51h4.25v70.9h-4.25v-70.9Z"/>
      <path class="cls-3" d="M589.27,741.51h4.25v70.9h-4.25v-70.9Z"/>
      <path class="cls-3" d="M643.21,764.55c3.81,2.06,6.75,4.95,8.81,8.66,2.06,3.71,3.09,8,3.09,12.86,0,1.28-.03,2.26-.1,2.94h-45.88c.47,6.28,2.6,11.24,6.38,14.89,3.78,3.65,8.68,5.47,14.69,5.47,3.71,0,7.26-.74,10.64-2.23,3.38-1.49,5.98-3.44,7.8-5.88l3.04,2.53c-2.36,2.97-5.44,5.32-9.22,7.04-3.78,1.72-7.87,2.58-12.26,2.58-4.86,0-9.22-1.11-13.07-3.34-3.85-2.23-6.85-5.32-9.01-9.27-2.16-3.95-3.24-8.42-3.24-13.42s1.06-9.45,3.19-13.37c2.13-3.92,5.1-6.99,8.91-9.22,3.81-2.23,8.15-3.34,13.02-3.34s9.4,1.03,13.22,3.09ZM615.5,770.83c-3.78,3.61-5.91,8.36-6.38,14.23h41.83c0-3.85-.9-7.26-2.68-10.23-1.79-2.97-4.25-5.28-7.39-6.94-3.14-1.65-6.77-2.48-10.89-2.48-5.88,0-10.7,1.81-14.49,5.42Z"/>
      <path class="cls-3" d="M697.14,764.6l-1.92,3.65c-2.5-1.48-5.3-2.23-8.41-2.23s-5.96.91-8.56,2.73c-2.6,1.82-4.64,4.32-6.13,7.5-1.49,3.17-2.23,6.65-2.23,10.43v25.73h-4.25v-50.04h4.05v11.14c1.76-3.65,4.14-6.5,7.14-8.56,3-2.06,6.36-3.09,10.08-3.09,3.98,0,7.39.91,10.23,2.74Z"/>
      <path class="cls-3" d="M747.58,762.37v50.04h-4.05v-10.03c-1.96,3.31-4.63,5.92-8,7.85-3.38,1.92-7.16,2.89-11.34,2.89-6.48,0-11.58-1.92-15.29-5.77-3.71-3.85-5.57-9.22-5.57-16.11v-28.87h4.25v28.67c0,5.81,1.47,10.26,4.41,13.37,2.94,3.11,7.11,4.66,12.51,4.66,3.65,0,6.9-.83,9.77-2.48,2.87-1.65,5.1-3.92,6.68-6.79,1.59-2.87,2.38-6.06,2.38-9.57v-27.85h4.25Z"/>
      <path class="cls-3" d="M798.02,762.37v2.23l-34.54,43.76h34.44v4.05h-40.92v-2.23l34.34-43.76h-32.82v-4.05h39.5Z"/>
    </g>
    <g class="cls-2">
      <path class="cls-3" d="M843.82,762.37v2.23l-34.54,43.76h34.44v4.05h-40.92v-2.23l34.34-43.76h-32.82v-4.05h39.5Z"/>
    </g>
    <g class="cls-2">
      <path class="cls-3" d="M861.7,809.98c-3.88-2.23-6.92-5.32-9.12-9.27-2.2-3.95-3.29-8.39-3.29-13.32s1.1-9.37,3.29-13.32c2.19-3.95,5.23-7.04,9.12-9.27,3.88-2.23,8.25-3.34,13.12-3.34s9.33,1.11,13.22,3.34c3.88,2.23,6.92,5.32,9.12,9.27,2.19,3.95,3.29,8.39,3.29,13.32s-1.1,9.37-3.29,13.32c-2.2,3.95-5.23,7.04-9.12,9.27-3.88,2.23-8.29,3.34-13.22,3.34s-9.23-1.11-13.12-3.34ZM885.76,806.43c3.24-1.89,5.79-4.51,7.65-7.85,1.86-3.34,2.79-7.07,2.79-11.19s-.93-7.85-2.79-11.19c-1.86-3.34-4.41-5.96-7.65-7.85-3.24-1.89-6.89-2.84-10.94-2.84s-7.7.95-10.94,2.84c-3.24,1.89-5.77,4.51-7.6,7.85-1.82,3.34-2.73,7.07-2.73,11.19s.91,7.85,2.73,11.19c1.82,3.34,4.36,5.96,7.6,7.85,3.24,1.89,6.89,2.84,10.94,2.84s7.7-.95,10.94-2.84Z"/>
    </g>
  </g>
</svg>