<?xml version="1.0" encoding="UTF-8"?>
<svg id="Livello_1" data-name="Livello 1" xmlns="http://www.w3.org/2000/svg" viewBox="0 0 162.84 162.84">
  <path d="M151.1,142.92l-7.6-15.6h.04s-1.63-3.27-1.63-3.27l-.42-.86h-.01l-20.05-40.13h-39.51l-9.97,18.98h39.89l10.91,21.14H40.72l41.14-82.27,16,32.14h18.58L82.33,4.86c-.37-.74-1.42-.74-1.79,0l-8.33,16.68h0l-55.67,111.53h.08l-4.83,9.85h139.31Z"/>
  <polygon points="3.98 158.53 23.94 158.53 28.86 148.73 8.88 148.73 3.98 158.53"/>
  <polygon points="154 148.73 134.71 148.73 139.61 158.53 158.85 158.53 154 148.73"/>
</svg>